<svg width="36" height="36" viewBox="0 0 36 36" fill="none" xmlns="http://www.w3.org/2000/svg">
<g opacity="0.8" filter="url(#filter0_d_7840_209616)">
<rect x="3" y="2" width="30" height="30" rx="15" fill="#EFF5F5"/>
<path d="M17.2001 19.8611C19.0947 19.8611 20.6307 18.3252 20.6307 16.4306C20.6307 14.5359 19.0947 13 17.2001 13C15.3054 13 13.7695 14.5359 13.7695 16.4306C13.7695 18.3252 15.3054 19.8611 17.2001 19.8611Z" stroke="#567F88" stroke-linecap="round" stroke-linejoin="round"/>
<path d="M12 22.8621C12.5272 21.9495 13.2853 21.1918 14.1981 20.665C15.1109 20.1382 16.1462 19.8608 17.2001 19.8608C18.254 19.8609 19.2893 20.1382 20.2021 20.665C21.1149 21.1919 21.873 21.9496 22.4001 22.8622" stroke="#567F88" stroke-linecap="round" stroke-linejoin="round"/>
<path d="M23 9L23 12L23 15" stroke="#567F88" stroke-linecap="round"/>
<path d="M20 12H23L26 12" stroke="#567F88" stroke-linecap="round"/>
</g>
<defs>
<filter id="filter0_d_7840_209616" x="0" y="0" width="36" height="36" filterUnits="userSpaceOnUse" color-interpolation-filters="sRGB">
<feFlood flood-opacity="0" result="BackgroundImageFix"/>
<feColorMatrix in="SourceAlpha" type="matrix" values="0 0 0 0 0 0 0 0 0 0 0 0 0 0 0 0 0 0 127 0" result="hardAlpha"/>
<feOffset dy="1"/>
<feGaussianBlur stdDeviation="1.5"/>
<feComposite in2="hardAlpha" operator="out"/>
<feColorMatrix type="matrix" values="0 0 0 0 0 0 0 0 0 0 0 0 0 0 0 0 0 0 0.22 0"/>
<feBlend mode="normal" in2="BackgroundImageFix" result="effect1_dropShadow_7840_209616"/>
<feBlend mode="normal" in="SourceGraphic" in2="effect1_dropShadow_7840_209616" result="shape"/>
</filter>
</defs>
</svg>
