<svg width="29" height="28" viewBox="0 0 29 28" fill="none" xmlns="http://www.w3.org/2000/svg">
<path d="M24.4984 7.56289C24.4985 6.89228 24.3094 6.23526 23.9527 5.66739C23.5959 5.09953 23.0862 4.64388 22.482 4.35288C21.8778 4.06187 21.2038 3.94732 20.5374 4.0224C19.871 4.09748 19.2393 4.35914 18.715 4.77729C18.1908 5.19543 17.7952 5.75308 17.5738 6.38608C17.3524 7.01908 17.3141 7.70173 17.4635 8.35549C17.6128 9.00926 17.9437 9.60759 18.418 10.0817C18.8923 10.5557 19.4908 10.8863 20.1446 11.0353V11.1251C20.1441 11.5449 19.9772 11.9473 19.6804 12.2441C19.3836 12.5409 18.9811 12.7078 18.5614 12.7083L11.437 12.7085C11.2291 12.7085 11.0232 12.6675 10.8311 12.588C10.6391 12.5084 10.4645 12.3918 10.3175 12.2448C10.1705 12.0978 10.0539 11.9232 9.97432 11.7311C9.89476 11.5391 9.85381 11.3332 9.85381 11.1253V11.0353C10.7077 10.8407 11.46 10.3384 11.9669 9.62421C12.4739 8.91007 12.7 8.0342 12.6021 7.1639C12.5041 6.29361 12.089 5.48988 11.4361 4.90626C10.7831 4.32263 9.93799 4 9.06221 4C8.18642 4 7.34132 4.32263 6.68834 4.90626C6.03537 5.48988 5.62027 6.29361 5.52235 7.1639C5.42442 8.0342 5.65053 8.91007 6.15749 9.62421C6.66445 10.3384 7.41672 10.8407 8.27061 11.0353V11.1253C8.2706 11.5411 8.35249 11.9529 8.51161 12.337C8.67073 12.7212 8.90397 13.0703 9.198 13.3643C9.49203 13.6583 9.84109 13.8916 10.2253 14.0507C10.6094 14.2098 11.0212 14.2917 11.437 14.2917L14.2078 14.2916L14.2077 15.9647C13.3538 16.1593 12.6015 16.6616 12.0945 17.3758C11.5876 18.0899 11.3614 18.9658 11.4594 19.8361C11.5573 20.7064 11.9724 21.5101 12.6253 22.0937C13.2783 22.6774 14.1234 23 14.9992 23C15.875 23 16.7201 22.6774 17.373 22.0938C18.026 21.5102 18.4411 20.7064 18.5391 19.8361C18.637 18.9659 18.4109 18.09 17.9039 17.3758C17.397 16.6617 16.6447 16.1593 15.7909 15.9647L15.791 14.2916L18.5614 14.2915C19.4009 14.2906 20.2057 13.9566 20.7993 13.363C21.3929 12.7694 21.7268 11.9646 21.7278 11.1251V11.0353C22.5142 10.8551 23.2163 10.4136 23.7195 9.78294C24.2227 9.15229 24.4973 8.36969 24.4984 7.56289ZM16.9782 19.4371C16.9782 19.8285 16.8621 20.2112 16.6447 20.5366C16.4272 20.862 16.1181 21.1157 15.7565 21.2655C15.3949 21.4153 14.997 21.4545 14.6131 21.3781C14.2292 21.3017 13.8766 21.1133 13.5998 20.8365C13.3231 20.5597 13.1346 20.2071 13.0582 19.8232C12.9819 19.4393 13.0211 19.0414 13.1708 18.6798C13.3206 18.3182 13.5743 18.0091 13.8997 17.7916C14.2252 17.5742 14.6078 17.4581 14.9992 17.4581C15.5239 17.4587 16.0269 17.6674 16.3979 18.0384C16.7689 18.4094 16.9776 18.9124 16.9782 19.4371Z" fill="white"/>
</svg>
