<svg width="20" height="21" viewBox="0 0 20 21" fill="none" xmlns="http://www.w3.org/2000/svg">
<path d="M3.2761 7.79494C3.27485 6.89951 3.45083 6.0127 3.79392 5.18561C4.137 4.35852 4.64039 3.60752 5.27507 2.97588C5.90975 2.34425 6.66317 1.84448 7.4919 1.50538C8.32063 1.16629 9.20828 0.994571 10.1037 1.00013C13.84 1.02791 16.8285 4.1335 16.8285 7.88024V8.54994C16.8285 11.93 17.5357 13.8915 18.1585 14.9635C18.2256 15.078 18.2613 15.2082 18.262 15.341C18.2628 15.4737 18.2284 15.6043 18.1626 15.7196C18.0967 15.8348 18.0016 15.9307 17.8869 15.9975C17.7721 16.0642 17.6418 16.0996 17.5091 16.0999H2.59477C2.462 16.0996 2.33167 16.0642 2.21693 15.9974C2.10219 15.9307 2.00709 15.8348 1.94123 15.7195C1.87537 15.6042 1.84107 15.4736 1.84181 15.3408C1.84254 15.2081 1.87828 15.0779 1.94541 14.9633C2.56859 13.8913 3.27609 11.9299 3.27609 8.54994L3.2761 7.79494Z" stroke="#054857" stroke-width="2" stroke-linecap="round" stroke-linejoin="round"/>
<path d="M7.03174 16.0996V16.8546C7.03174 17.6556 7.34992 18.4237 7.91627 18.9901C8.48263 19.5564 9.25078 19.8746 10.0517 19.8746C10.8527 19.8746 11.6208 19.5564 12.1872 18.9901C12.7536 18.4237 13.0717 17.6556 13.0717 16.8546V16.0996" stroke="#054857" stroke-width="2" stroke-linecap="round" stroke-linejoin="round"/>
</svg>
