<svg width="18" height="18" viewBox="0 0 18 18" fill="none" xmlns="http://www.w3.org/2000/svg">
<path d="M16.2727 1H1.72727C1.32561 1 1 1.32561 1 1.72727V16.2727C1 16.6744 1.32561 17 1.72727 17H16.2727C16.6744 17 17 16.6744 17 16.2727V1.72727C17 1.32561 16.6744 1 16.2727 1Z" stroke="#567F88" stroke-width="2" stroke-linecap="round" stroke-linejoin="round"/>
<path d="M17 11.9091L13.1506 8.05969C13.0142 7.9233 12.8292 7.84668 12.6364 7.84668C12.4435 7.84668 12.2585 7.9233 12.1221 8.05969L8.05971 12.1221C7.92332 12.2585 7.73834 12.3351 7.54545 12.3351C7.35257 12.3351 7.16758 12.2585 7.03119 12.1221L5.15062 10.2415C5.01423 10.1051 4.82925 10.0285 4.63636 10.0285C4.44348 10.0285 4.25849 10.1051 4.1221 10.2415L1 13.3636" stroke="#567F88" stroke-width="2" stroke-linecap="round" stroke-linejoin="round"/>
<path d="M6.45455 6.63654C6.95662 6.63654 7.36364 6.22953 7.36364 5.72745C7.36364 5.22537 6.95662 4.81836 6.45455 4.81836C5.95247 4.81836 5.54546 5.22537 5.54546 5.72745C5.54546 6.22953 5.95247 6.63654 6.45455 6.63654Z" fill="#567F88" stroke="#567F88" stroke-width="2" stroke-linecap="round" stroke-linejoin="round"/>
</svg>
