<svg width="16" height="22" viewBox="0 0 16 22" fill="none" xmlns="http://www.w3.org/2000/svg">
<path d="M7.99998 1H7.99999C9.02006 1 9.99834 1.40522 10.7196 2.12651C11.4409 2.84781 11.8461 3.82609 11.8461 4.84615V11C11.8461 12.0201 11.4409 12.9983 10.7196 13.7196C9.99834 14.4409 9.02006 14.8462 7.99999 14.8462H7.99999C7.4949 14.8462 6.99476 14.7467 6.52813 14.5534C6.06149 14.3601 5.6375 14.0768 5.28035 13.7196C4.9232 13.3625 4.6399 12.9385 4.44661 12.4719C4.25332 12.0052 4.15384 11.5051 4.15384 11V4.84614C4.15384 3.82608 4.55906 2.8478 5.28035 2.12651C6.00164 1.40522 6.97992 1 7.99998 1V1Z" stroke="#567F88" stroke-width="2" stroke-linecap="round" stroke-linejoin="round"/>
<path d="M8 17.9233V21.0003" stroke="#567F88" stroke-width="2" stroke-linecap="round" stroke-linejoin="round"/>
<path d="M14.8808 11.7695C14.6914 13.462 13.885 15.0252 12.6156 16.1605C11.3462 17.2957 9.70297 17.9234 7.99999 17.9234C6.29701 17.9234 4.65376 17.2957 3.38438 16.1605C2.115 15.0252 1.30854 13.462 1.11917 11.7695" stroke="#567F88" stroke-width="2" stroke-linecap="round" stroke-linejoin="round"/>
</svg>
