<svg width="18" height="19" viewBox="0 0 18 19" fill="none" xmlns="http://www.w3.org/2000/svg">
<path d="M6.13318 12.2084L11.866 6.47559" stroke="#567F88" stroke-width="2" stroke-linecap="round" stroke-linejoin="round"/>
<path d="M10.4328 13.642L8.04411 16.0306C7.28385 16.7906 6.25285 17.2175 5.17786 17.2174C4.10287 17.2173 3.07194 16.7903 2.31181 16.0301C1.55168 15.27 1.1246 14.2391 1.12451 13.1641C1.12442 12.0891 1.55132 11.0581 2.31132 10.2978L4.69998 7.90918" stroke="#567F88" stroke-width="2" stroke-linecap="round" stroke-linejoin="round"/>
<path d="M13.2997 10.7751L15.6883 8.3864C16.4483 7.62614 16.8753 6.59513 16.8752 5.52014C16.8751 4.44516 16.448 3.41423 15.6879 2.6541C14.9277 1.89397 13.8968 1.46689 12.8218 1.4668C11.7468 1.4667 10.7158 1.89361 9.95556 2.65361L7.56689 5.04227" stroke="#567F88" stroke-width="2" stroke-linecap="round" stroke-linejoin="round"/>
</svg>
