<svg width="18" height="19" viewBox="0 0 18 19" fill="none" xmlns="http://www.w3.org/2000/svg">
<path d="M2.98669 7.02995C2.98558 6.23533 3.14176 5.44836 3.44621 4.71439C3.75067 3.98041 4.19738 3.31396 4.76061 2.75343C5.32384 2.19291 5.99244 1.74941 6.72787 1.44849C7.4633 1.14757 8.25101 0.995182 9.04561 1.00012C12.3612 1.02477 15.0133 3.78073 15.0133 7.10564V7.69995C15.0133 10.6995 15.6409 12.4401 16.1936 13.3914C16.2532 13.4931 16.2849 13.6086 16.2855 13.7264C16.2861 13.8443 16.2557 13.9601 16.1972 14.0624C16.1388 14.1647 16.0544 14.2498 15.9526 14.309C15.8507 14.3683 15.7351 14.3996 15.6173 14.3999H2.38207C2.26425 14.3996 2.14859 14.3683 2.04677 14.309C1.94494 14.2497 1.86055 14.1646 1.8021 14.0623C1.74366 13.96 1.71323 13.8441 1.71388 13.7263C1.71453 13.6085 1.74624 13.4929 1.80581 13.3913C2.35884 12.4399 2.98669 10.6994 2.98669 7.69995L2.98669 7.02995Z" stroke="#567F88" stroke-width="2" stroke-linecap="round" stroke-linejoin="round"/>
<path d="M6.31934 14.3999V15.0699C6.31934 15.7807 6.60169 16.4623 7.10429 16.9649C7.60689 17.4675 8.28856 17.7499 8.99934 17.7499C9.71012 17.7499 10.3918 17.4675 10.8944 16.9649C11.397 16.4623 11.6793 15.7807 11.6793 15.0699V14.3999" stroke="#567F88" stroke-width="2" stroke-linecap="round" stroke-linejoin="round"/>
</svg>
