<svg width="18" height="18" viewBox="0 0 18 18" fill="none" xmlns="http://www.w3.org/2000/svg">
<path d="M9 11.625C10.4497 11.625 11.625 10.4497 11.625 9C11.625 7.55025 10.4497 6.375 9 6.375C7.55025 6.375 6.375 7.55025 6.375 9C6.375 10.4497 7.55025 11.625 9 11.625Z" stroke="#567F88" stroke-width="2" stroke-linecap="round" stroke-linejoin="round"/>
<path d="M15.951 8.3684L16.7651 7.14726C16.8182 7.06859 16.8532 6.9792 16.8679 6.88545C16.8825 6.7917 16.8763 6.69587 16.8497 6.60479C16.6961 6.09905 16.4937 5.60945 16.2453 5.14291C16.1998 5.05986 16.1365 4.98787 16.06 4.9321C15.9835 4.87633 15.8956 4.83814 15.8026 4.82027L14.362 4.53213L13.4684 3.63853L13.1803 2.19795C13.1624 2.10495 13.1242 2.01704 13.0685 1.9405C13.0127 1.86397 12.9407 1.80069 12.8576 1.75519C12.3911 1.50684 11.9014 1.30445 11.3957 1.15089C11.3046 1.1243 11.2088 1.1181 11.115 1.13271C11.0213 1.14733 10.9319 1.18241 10.8532 1.23546L9.63217 2.0495H8.36841L7.14734 1.23546C7.06867 1.18241 6.97929 1.14733 6.88553 1.13271C6.79178 1.1181 6.69596 1.1243 6.60487 1.15089C6.09913 1.30445 5.60952 1.50684 5.14295 1.75518C5.05989 1.80069 4.9879 1.86397 4.93212 1.94051C4.87634 2.01705 4.83815 2.10496 4.82028 2.19797L4.53222 3.63846L3.63854 4.53213L2.19804 4.82019C2.10504 4.83806 2.01713 4.87625 1.94059 4.93203C1.86406 4.9878 1.80078 5.05978 1.75527 5.14284C1.50689 5.60941 1.30447 6.09903 1.15088 6.60479C1.1243 6.69588 1.1181 6.7917 1.13272 6.88545C1.14734 6.9792 1.18242 7.06858 1.23547 7.14725L2.04951 8.36832V9.63208L1.23546 10.8532C1.18242 10.9318 1.14734 11.0212 1.13272 11.115C1.11811 11.2087 1.12431 11.3045 1.15089 11.3956C1.30443 11.9014 1.50682 12.391 1.75519 12.8576C1.80069 12.9406 1.86397 13.0126 1.94051 13.0684C2.01704 13.1241 2.10495 13.1623 2.19795 13.1802L3.63854 13.4683L4.53214 14.3619L4.82021 15.8025C4.83808 15.8955 4.87627 15.9834 4.93204 16.06C4.98781 16.1365 5.05979 16.1998 5.14285 16.2453C5.60939 16.4937 6.099 16.6961 6.60474 16.8496C6.69582 16.8762 6.79164 16.8824 6.88538 16.8678C6.97913 16.8532 7.06851 16.8181 7.14717 16.765L8.36833 15.951H9.63209L10.8532 16.7651C10.9319 16.8181 11.0213 16.8532 11.115 16.8678C11.2088 16.8825 11.3046 16.8762 11.3957 16.8497C11.9014 16.6961 12.391 16.4937 12.8576 16.2454C12.9406 16.1999 13.0126 16.1366 13.0684 16.0601C13.1242 15.9835 13.1623 15.8956 13.1802 15.8026L13.4683 14.362L14.3619 13.4683L15.8025 13.1803C15.8955 13.1624 15.9834 13.1242 16.06 13.0684C16.1365 13.0127 16.1998 12.9407 16.2453 12.8576C16.4937 12.3911 16.6961 11.9015 16.8497 11.3958C16.8763 11.3047 16.8825 11.2089 16.8678 11.1151C16.8532 11.0214 16.8181 10.932 16.7651 10.8533L15.951 9.63216V8.3684Z" stroke="#567F88" stroke-width="2" stroke-linecap="round" stroke-linejoin="round"/>
</svg>
