<svg width="18" height="18" viewBox="0 0 18 18" fill="none" xmlns="http://www.w3.org/2000/svg">
<path d="M16.4041 8.26924H13.981C13.6597 8.26924 13.3515 8.39688 13.1243 8.62409C12.8971 8.8513 12.7695 9.15946 12.7695 9.48078V12.5096C12.7695 12.8309 12.8971 13.1391 13.1243 13.3663C13.3515 13.5935 13.6597 13.7212 13.981 13.7212H15.1925C15.5139 13.7212 15.822 13.5935 16.0492 13.3663C16.2764 13.1391 16.4041 12.8309 16.4041 12.5096V8.26924ZM16.4041 8.26924C16.4041 7.30999 16.2142 6.36023 15.8454 5.4747C15.4767 4.58916 14.9363 3.78538 14.2554 3.10966C13.5746 2.43395 12.7667 1.89967 11.8784 1.53763C10.9901 1.17559 10.0389 0.992937 9.07972 1.00021C8.1205 0.992937 7.16933 1.17559 6.28103 1.53763C5.39272 1.89967 4.58486 2.43395 3.904 3.10966C3.22315 3.78538 2.68276 4.58916 2.31399 5.4747C1.94523 6.36023 1.75537 7.30999 1.75537 8.26924V12.5096C1.75537 12.8309 1.88301 13.1391 2.11022 13.3663C2.33743 13.5935 2.64559 13.7212 2.96691 13.7212H4.17845C4.49977 13.7212 4.80793 13.5935 5.03514 13.3663C5.26234 13.1391 5.38999 12.8309 5.38999 12.5096V9.48078C5.38999 9.15946 5.26234 8.8513 5.03514 8.62409C4.80793 8.39688 4.49977 8.26924 4.17845 8.26924H1.75537" stroke="#567F88" stroke-width="2" stroke-linecap="round" stroke-linejoin="round"/>
<path d="M16.4041 12.5098V14.3271C16.4041 14.9697 16.1488 15.586 15.6944 16.0404C15.24 16.4949 14.6236 16.7502 13.981 16.7502H9.63037" stroke="#567F88" stroke-width="2" stroke-linecap="round" stroke-linejoin="round"/>
</svg>
