<svg width="16" height="18" viewBox="0 0 16 18" fill="none" xmlns="http://www.w3.org/2000/svg">
<path d="M14.8173 3.94727L1.18188 3.94727" stroke="#567F88" stroke-width="2" stroke-linecap="round" stroke-linejoin="round"/>
<path d="M6.1405 7.66602V12.6243" stroke="#567F88" stroke-width="2" stroke-linecap="round" stroke-linejoin="round"/>
<path d="M9.85925 7.66602V12.6243" stroke="#567F88" stroke-width="2" stroke-linecap="round" stroke-linejoin="round"/>
<path d="M13.5778 3.94727V15.7233C13.5778 15.8877 13.5125 16.0453 13.3962 16.1616C13.28 16.2778 13.1223 16.3431 12.958 16.3431H3.0413C2.87692 16.3431 2.71928 16.2778 2.60304 16.1616C2.48681 16.0453 2.42151 15.8877 2.42151 15.7233V3.94727" stroke="#567F88" stroke-width="2" stroke-linecap="round" stroke-linejoin="round"/>
<path d="M11.0989 3.94694V2.70736C11.0989 2.3786 10.9683 2.06331 10.7359 1.83084C10.5034 1.59837 10.1881 1.46777 9.85933 1.46777H6.14058C5.81183 1.46777 5.49653 1.59837 5.26407 1.83084C5.0316 2.06331 4.901 2.3786 4.901 2.70736V3.94694" stroke="#567F88" stroke-width="2" stroke-linecap="round" stroke-linejoin="round"/>
</svg>
