<svg width="16" height="17" viewBox="0 0 16 17" fill="none" xmlns="http://www.w3.org/2000/svg">
<path d="M8 4.84277V8.92611" stroke="#567F88" stroke-width="2" stroke-linecap="round" stroke-linejoin="round"/>
<path d="M10.6579 1.34277H5.34213C5.26553 1.34277 5.18967 1.35786 5.1189 1.38718C5.04812 1.41649 4.98382 1.45946 4.92965 1.51363L1.17085 5.27242C1.11669 5.32659 1.07372 5.3909 1.0444 5.46167C1.01509 5.53244 1 5.6083 1 5.6849V11.0006C1 11.0772 1.01509 11.1531 1.0444 11.2239C1.07372 11.2946 1.11669 11.359 1.17085 11.4131L4.92965 15.1719C4.98382 15.2261 5.04812 15.2691 5.1189 15.2984C5.18967 15.3277 5.26553 15.3428 5.34213 15.3428H10.6579C10.7345 15.3428 10.8103 15.3277 10.8811 15.2984C10.9519 15.2691 11.0162 15.2261 11.0703 15.1719L14.8291 11.4131C14.8833 11.359 14.9263 11.2946 14.9556 11.2239C14.9849 11.1531 15 11.0772 15 11.0006V5.6849C15 5.6083 14.9849 5.53244 14.9556 5.46167C14.9263 5.3909 14.8833 5.32659 14.8291 5.27242L11.0703 1.51363C11.0162 1.45946 10.9519 1.41649 10.8811 1.38718C10.8103 1.35786 10.7345 1.34277 10.6579 1.34277Z" stroke="#567F88" stroke-width="2" stroke-linecap="round" stroke-linejoin="round"/>
<path d="M8 12.7178C8.48325 12.7178 8.875 12.326 8.875 11.8428C8.875 11.3595 8.48325 10.9678 8 10.9678C7.51675 10.9678 7.125 11.3595 7.125 11.8428C7.125 12.326 7.51675 12.7178 8 12.7178Z" fill="#567F88"/>
</svg>
