<svg width="24" height="24" viewBox="0 0 24 24" fill="none" xmlns="http://www.w3.org/2000/svg">
<path d="M12 2.24902C10.3065 2.24952 8.64228 2.69099 7.1712 3.52997C5.70011 4.36896 4.47284 5.57654 3.61018 7.03387C2.74752 8.4912 2.2792 10.148 2.25132 11.8413C2.22344 13.5346 2.63696 15.206 3.45117 16.6909L2.64917 19.4946C2.57548 19.7519 2.57197 20.0242 2.63901 20.2832C2.70604 20.5423 2.84118 20.7787 3.03039 20.9679C3.21961 21.1571 3.45601 21.2922 3.71507 21.3593C3.97414 21.4263 4.24641 21.4228 4.50366 21.3491L7.3081 20.5493C8.61151 21.2645 10.0612 21.6721 11.5463 21.7411C13.0314 21.8101 14.5126 21.5385 15.8767 20.9473C17.2408 20.3561 18.4516 19.4607 19.4166 18.3298C20.3816 17.1988 21.0753 15.8622 21.4445 14.422C21.8137 12.9819 21.8488 11.4764 21.5469 10.0207C21.2451 8.56492 20.6144 7.19746 19.7031 6.02283C18.7917 4.8482 17.6239 3.8975 16.2888 3.24343C14.9537 2.58935 13.4867 2.24922 12 2.24902ZM15 14.249H9C8.80108 14.249 8.61032 14.17 8.46967 14.0294C8.32901 13.8887 8.24999 13.6979 8.24999 13.499C8.24999 13.3001 8.32901 13.1093 8.46967 12.9687C8.61032 12.828 8.80108 12.749 9 12.749H15C15.1989 12.749 15.3897 12.828 15.5303 12.9687C15.671 13.1093 15.75 13.3001 15.75 13.499C15.75 13.6979 15.671 13.8887 15.5303 14.0294C15.3897 14.17 15.1989 14.249 15 14.249ZM15 11.249H9C8.80108 11.249 8.61032 11.17 8.46967 11.0294C8.32901 10.8887 8.24999 10.6979 8.24999 10.499C8.24999 10.3001 8.32901 10.1093 8.46967 9.96869C8.61032 9.82804 8.80108 9.74902 9 9.74902H15C15.1989 9.74902 15.3897 9.82804 15.5303 9.96869C15.671 10.1093 15.75 10.3001 15.75 10.499C15.75 10.6979 15.671 10.8887 15.5303 11.0294C15.3897 11.17 15.1989 11.249 15 11.249Z" fill="white"/>
</svg>
