<svg width="20" height="20" viewBox="0 0 20 20" fill="none" xmlns="http://www.w3.org/2000/svg">
<path d="M2.25947 14.5916C1.14082 12.7058 0.749053 10.4765 1.15775 8.32237C1.56644 6.16819 2.74748 4.23731 4.4791 2.89229C6.21071 1.54727 8.37377 0.880641 10.5621 1.01758C12.7505 1.15452 14.8135 2.08561 16.364 3.63601C17.9144 5.1864 18.8455 7.24946 18.9824 9.43778C19.1194 11.6261 18.4528 13.7891 17.1077 15.5207C15.7627 17.2523 13.8318 18.4334 11.6776 18.8421C9.52343 19.2508 7.29412 18.859 5.40833 17.7404L5.40835 17.7403L2.29862 18.6288C2.16996 18.6655 2.03381 18.6672 1.90428 18.6337C1.77475 18.6001 1.65656 18.5325 1.56194 18.4379C1.46732 18.3433 1.39973 18.2251 1.36616 18.0956C1.3326 17.966 1.33429 17.8299 1.37105 17.7012L2.25954 14.5915L2.25947 14.5916Z" stroke="#567F88" stroke-width="2" stroke-linecap="round" stroke-linejoin="round"/>
</svg>
