<svg width="16" height="17" viewBox="0 0 16 17" fill="none" xmlns="http://www.w3.org/2000/svg">
<path d="M2.11634 6.07057C2.11525 5.28708 2.26924 4.51111 2.56943 3.78741C2.86963 3.06371 3.31009 2.40658 3.86544 1.8539C4.42078 1.30122 5.08003 0.863921 5.80517 0.567212C6.53031 0.270503 7.307 0.12025 8.09048 0.125114C11.3597 0.149419 13.9747 2.86682 13.9747 6.14521V6.73119C13.9747 9.68878 14.5935 11.405 15.1385 12.343C15.1972 12.4433 15.2284 12.5572 15.229 12.6734C15.2297 12.7895 15.1996 12.9038 15.142 13.0046C15.0844 13.1055 15.0012 13.1894 14.9008 13.2478C14.8004 13.3062 14.6864 13.3371 14.5702 13.3374H1.52018C1.40401 13.3371 1.28997 13.3062 1.18957 13.2478C1.08917 13.1893 1.00596 13.1054 0.948331 13.0046C0.890703 12.9037 0.860696 12.7894 0.861338 12.6732C0.86198 12.5571 0.893247 12.4431 0.951986 12.3429C1.49727 11.4048 2.11634 9.68863 2.11634 6.73119L2.11634 6.07057Z" fill="#054857"/>
<path d="M5.40234 13.3379V13.9985C5.40234 14.6993 5.68075 15.3715 6.17631 15.867C6.67188 16.3626 7.34401 16.641 8.04484 16.641C8.74568 16.641 9.41781 16.3626 9.91337 15.867C10.4089 15.3715 10.6873 14.6993 10.6873 13.9985V13.3379" fill="#054857"/>
</svg>
