<svg width="16" height="19" viewBox="0 0 16 19" fill="none" xmlns="http://www.w3.org/2000/svg">
<path d="M14.367 7.55835H1.71279C1.36335 7.55835 1.08008 7.84162 1.08008 8.19106V17.049C1.08008 17.3984 1.36335 17.6817 1.71279 17.6817H14.367C14.7164 17.6817 14.9997 17.3984 14.9997 17.049V8.19106C14.9997 7.84162 14.7164 7.55835 14.367 7.55835Z" stroke="#567F88" stroke-width="2" stroke-linecap="round" stroke-linejoin="round"/>
<path d="M5.19238 7.5584V4.71121C5.19238 3.95608 5.49235 3.23189 6.02631 2.69794C6.56026 2.16398 7.28445 1.86401 8.03958 1.86401C8.7947 1.86401 9.51889 2.16398 10.0528 2.69794C10.5868 3.23189 10.8868 3.95608 10.8868 4.71121V7.5584" stroke="#567F88" stroke-width="2" stroke-linecap="round" stroke-linejoin="round"/>
</svg>
