<svg width="18" height="19" viewBox="0 0 18 19" fill="none" xmlns="http://www.w3.org/2000/svg">
<path d="M3.11671 7.07057C3.11561 6.28708 3.2696 5.51111 3.5698 4.78741C3.86999 4.06371 4.31046 3.40658 4.86581 2.8539C5.42115 2.30122 6.08039 1.86392 6.80553 1.56721C7.53067 1.2705 8.30737 1.12025 9.09085 1.12511C12.3601 1.14942 14.9751 3.86682 14.9751 7.14521V7.73119C14.9751 10.6888 15.5938 12.405 16.1388 13.343C16.1975 13.4433 16.2288 13.5572 16.2294 13.6734C16.23 13.7895 16.2 13.9038 16.1424 14.0046C16.0847 14.1055 16.0015 14.1894 15.9011 14.2478C15.8008 14.3062 15.6867 14.3371 15.5706 14.3374H2.52054C2.40437 14.3371 2.29034 14.3062 2.18994 14.2478C2.08954 14.1893 2.00633 14.1054 1.9487 14.0046C1.89107 13.9037 1.86106 13.7894 1.8617 13.6732C1.86235 13.5571 1.89361 13.4431 1.95235 13.3429C2.49764 12.4048 3.1167 10.6886 3.1167 7.73119L3.11671 7.07057Z" stroke="#567F88" stroke-width="2" stroke-linecap="round" stroke-linejoin="round"/>
<path d="M6.40295 14.3374V14.998C6.40295 15.6989 6.68136 16.371 7.17692 16.8666C7.67249 17.3621 8.34462 17.6405 9.04545 17.6405C9.74629 17.6405 10.4184 17.3621 10.914 16.8666C11.4095 16.371 11.688 15.6989 11.688 14.998V14.3374" stroke="#567F88" stroke-width="2" stroke-linecap="round" stroke-linejoin="round"/>
</svg>
