<svg width="16" height="16" viewBox="0 0 16 16" fill="none" xmlns="http://www.w3.org/2000/svg">
<path d="M8 4.5V8.58333" stroke="#054857" stroke-width="2" stroke-linecap="round" stroke-linejoin="round"/>
<path d="M10.6579 1H5.34213C5.26553 1 5.18967 1.01509 5.1189 1.0444C5.04812 1.07372 4.98382 1.11669 4.92965 1.17085L1.17085 4.92965C1.11669 4.98382 1.07372 5.04812 1.0444 5.1189C1.01509 5.18967 1 5.26553 1 5.34213V10.6579C1 10.7345 1.01509 10.8103 1.0444 10.8811C1.07372 10.9519 1.11669 11.0162 1.17085 11.0703L4.92965 14.8291C4.98382 14.8833 5.04812 14.9263 5.1189 14.9556C5.18967 14.9849 5.26553 15 5.34213 15H10.6579C10.7345 15 10.8103 14.9849 10.8811 14.9556C10.9519 14.9263 11.0162 14.8833 11.0703 14.8291L14.8291 11.0703C14.8833 11.0162 14.9263 10.9519 14.9556 10.8811C14.9849 10.8103 15 10.7345 15 10.6579V5.34213C15 5.26553 14.9849 5.18967 14.9556 5.1189C14.9263 5.04812 14.8833 4.98382 14.8291 4.92965L11.0703 1.17085C11.0162 1.11669 10.9519 1.07372 10.8811 1.0444C10.8103 1.01509 10.7345 1 10.6579 1Z" stroke="#054857" stroke-width="2" stroke-linecap="round" stroke-linejoin="round"/>
<path d="M8 12.375C8.48325 12.375 8.875 11.9832 8.875 11.5C8.875 11.0168 8.48325 10.625 8 10.625C7.51675 10.625 7.125 11.0168 7.125 11.5C7.125 11.9832 7.51675 12.375 8 12.375Z" fill="#054857"/>
</svg>
