<svg width="18" height="16" viewBox="0 0 18 16" fill="none" xmlns="http://www.w3.org/2000/svg">
<path d="M12.8315 5.74983H16.6497V1.93164" stroke="#567F88" stroke-width="2" stroke-linecap="round" stroke-linejoin="round"/>
<path d="M4.05029 3.05025C4.7003 2.40024 5.47198 1.88463 6.32126 1.53284C7.17054 1.18106 8.08079 1 9.00005 1C9.9193 1 10.8296 1.18106 11.6788 1.53284C12.5281 1.88463 13.2998 2.40024 13.9498 3.05025L16.6497 5.75012" stroke="#567F88" stroke-width="2" stroke-linecap="round" stroke-linejoin="round"/>
<path d="M5.16877 10.25H1.35059V14.0682" stroke="#567F88" stroke-width="2" stroke-linecap="round" stroke-linejoin="round"/>
<path d="M13.95 12.9499C13.2999 13.5999 12.5283 14.1155 11.679 14.4673C10.8297 14.8191 9.91946 15.0001 9.0002 15.0001C8.08095 15.0001 7.1707 14.8191 6.32142 14.4673C5.47214 14.1155 4.70046 13.5999 4.05045 12.9499L1.35059 10.25" stroke="#567F88" stroke-width="2" stroke-linecap="round" stroke-linejoin="round"/>
</svg>
