<svg width="17" height="16" viewBox="0 0 17 16" fill="none" xmlns="http://www.w3.org/2000/svg">
<path d="M6.927 4.39502V13.5605C6.927 13.6581 6.90291 13.7541 6.85687 13.8402C6.81083 13.9262 6.74427 13.9995 6.66309 14.0536L5.84876 14.5965C5.76973 14.6492 5.6792 14.6821 5.5848 14.6925C5.49039 14.7029 5.39487 14.6904 5.30629 14.6562C5.2177 14.6219 5.13865 14.5669 5.07578 14.4957C5.01291 14.4245 4.96807 14.3393 4.94503 14.2471L3.96367 10.3217" stroke="#054857" stroke-width="2" stroke-linecap="round" stroke-linejoin="round"/>
<path d="M3.96355 10.3217C3.17763 10.3217 2.42389 10.0095 1.86816 9.45372C1.31242 8.89799 1.00022 8.14425 1.00022 7.35833C1.00022 6.5724 1.31242 5.81867 1.86816 5.26293C2.42389 4.7072 3.17763 4.39499 3.96355 4.39499H6.92689C6.92689 4.39499 10.9609 4.39499 14.8428 1.1392C14.9291 1.06654 15.0344 1.02004 15.1463 1.00517C15.2581 0.990298 15.3719 1.00768 15.4742 1.05526C15.5765 1.10285 15.6631 1.17866 15.7239 1.27379C15.7846 1.36892 15.8168 1.4794 15.8169 1.59224V13.1244C15.8168 13.2373 15.7846 13.3477 15.7239 13.4429C15.6631 13.538 15.5765 13.6138 15.4742 13.6614C15.3719 13.709 15.2581 13.7264 15.1463 13.7115C15.0344 13.6966 14.9291 13.6501 14.8428 13.5775C10.9609 10.3217 6.92689 10.3217 6.92689 10.3217H3.96355Z" stroke="#054857" stroke-width="2" stroke-linecap="round" stroke-linejoin="round"/>
</svg>
