<svg width="19" height="17" viewBox="0 0 19 17" fill="none" xmlns="http://www.w3.org/2000/svg">
<path d="M16.7188 3.78418H2.28125C1.91881 3.78418 1.625 4.08181 1.625 4.44895V15.0854C1.625 15.4525 1.91881 15.7501 2.28125 15.7501H16.7188C17.0812 15.7501 17.375 15.4525 17.375 15.0854V4.44895C17.375 4.08181 17.0812 3.78418 16.7188 3.78418Z" stroke="#054857" stroke-width="2" stroke-linecap="round" stroke-linejoin="round"/>
<path d="M12.781 6.4432V2.45455C12.781 2.10193 12.6427 1.76375 12.3966 1.51442C12.1504 1.26508 11.8166 1.125 11.4685 1.125H7.53101C7.18291 1.125 6.84907 1.26508 6.60293 1.51442C6.35679 1.76375 6.21851 2.10193 6.21851 2.45455V6.4432" stroke="#054857" stroke-width="2" stroke-linecap="round" stroke-linejoin="round"/>
</svg>
