<svg width="18" height="18" viewBox="0 0 18 18" fill="none" xmlns="http://www.w3.org/2000/svg">
<path d="M9 16.2188C10.2685 16.2188 11.2969 15.1904 11.2969 13.9219C11.2969 12.6533 10.2685 11.625 9 11.625C7.73147 11.625 6.70312 12.6533 6.70312 13.9219C6.70312 15.1904 7.73147 16.2188 9 16.2188Z" stroke="#054857" stroke-width="2" stroke-linecap="round" stroke-linejoin="round"/>
<path d="M13.9219 6.37451C15.1904 6.37451 16.2188 5.34617 16.2188 4.07764C16.2188 2.80911 15.1904 1.78076 13.9219 1.78076C12.6533 1.78076 11.625 2.80911 11.625 4.07764C11.625 5.34617 12.6533 6.37451 13.9219 6.37451Z" stroke="#054857" stroke-width="2" stroke-linecap="round" stroke-linejoin="round"/>
<path d="M4.07812 6.37451C5.34665 6.37451 6.375 5.34617 6.375 4.07764C6.375 2.80911 5.34665 1.78076 4.07812 1.78076C2.8096 1.78076 1.78125 2.80911 1.78125 4.07764C1.78125 5.34617 2.8096 6.37451 4.07812 6.37451Z" stroke="#054857" stroke-width="2" stroke-linecap="round" stroke-linejoin="round"/>
<path d="M4.07812 6.37451V7.03093C4.07812 7.28947 4.12905 7.54548 4.22799 7.78434C4.32693 8.02321 4.47195 8.24024 4.65477 8.42306C4.83759 8.60587 5.05463 8.75089 5.2935 8.84982C5.53236 8.94876 5.78837 8.99968 6.04692 8.99968L11.9532 8.99956C12.4753 8.99955 12.9761 8.79212 13.3453 8.42291C13.7145 8.0537 13.9219 7.55294 13.9219 7.03081V6.37451" stroke="#054857" stroke-width="2" stroke-linecap="round" stroke-linejoin="round"/>
<path d="M9.0002 9L9 11.625" stroke="#054857" stroke-width="2" stroke-linecap="round" stroke-linejoin="round"/>
</svg>
