<svg width="80" height="80" viewBox="0 0 80 80" fill="none" xmlns="http://www.w3.org/2000/svg">
<rect width="80" height="80" rx="40" fill="#CFE3E7"/>
<path d="M43.6758 32.3496V52.1934C43.6758 52.4046 43.7279 52.6126 43.8276 52.7988C43.9273 52.9851 44.0714 53.1439 44.2472 53.261L46.0102 54.4364C46.1813 54.5505 46.3773 54.6217 46.5817 54.6442C46.7861 54.6667 46.9929 54.6397 47.1847 54.5656C47.3765 54.4914 47.5477 54.3723 47.6838 54.2182C47.8199 54.064 47.917 53.8795 47.9669 53.68L50.0916 45.1812" stroke="#567F88" stroke-width="2" stroke-linecap="round" stroke-linejoin="round"/>
<path d="M50.0909 45.1819C51.7924 45.1819 53.4243 44.506 54.6275 43.3028C55.8307 42.0996 56.5066 40.4677 56.5066 38.7661C56.5066 37.0646 55.8307 35.4327 54.6275 34.2295C53.4243 33.0263 51.7924 32.3503 50.0909 32.3503H43.6751C43.6751 32.3503 34.9413 32.3503 26.5368 25.3014C26.3498 25.1441 26.1219 25.0434 25.8797 25.0112C25.6375 24.979 25.3912 25.0166 25.1696 25.1197C24.9481 25.2227 24.7606 25.3868 24.6292 25.5928C24.4977 25.7987 24.4279 26.0379 24.4277 26.2822V51.25C24.4279 51.4943 24.4977 51.7335 24.6292 51.9395C24.7606 52.1454 24.9481 52.3096 25.1696 52.4126C25.3912 52.5156 25.6375 52.5532 25.8797 52.5211C26.1219 52.4889 26.3498 52.3882 26.5368 52.2309C34.9413 45.1819 43.6751 45.1819 43.6751 45.1819H50.0909Z" stroke="#567F88" stroke-width="2" stroke-linecap="round" stroke-linejoin="round"/>
</svg>
