<svg width="80" height="80" viewBox="0 0 80 80" fill="none" xmlns="http://www.w3.org/2000/svg">
<rect width="80" height="80" rx="40" fill="#CFE3E7"/>
<path d="M40.0004 56.9998C42.4605 56.9998 44.4549 55.0055 44.4549 52.5453C44.4549 50.0852 42.4605 48.0908 40.0004 48.0908C37.5402 48.0908 35.5459 50.0852 35.5459 52.5453C35.5459 55.0055 37.5402 56.9998 40.0004 56.9998Z" stroke="#567F88" stroke-width="2" stroke-linecap="round" stroke-linejoin="round"/>
<path d="M49.5453 37.909C52.0055 37.909 53.9998 35.9146 53.9998 33.4545C53.9998 30.9943 52.0055 29 49.5453 29C47.0852 29 45.0908 30.9943 45.0908 33.4545C45.0908 35.9146 47.0852 37.909 49.5453 37.909Z" stroke="#567F88" stroke-width="2" stroke-linecap="round" stroke-linejoin="round"/>
<path d="M30.4545 37.91C32.9146 37.91 34.909 35.9156 34.909 33.4555C34.909 30.9953 32.9146 29.001 30.4545 29.001C27.9943 29.001 26 30.9953 26 33.4555C26 35.9156 27.9943 37.91 30.4545 37.91Z" stroke="#567F88" stroke-width="2" stroke-linecap="round" stroke-linejoin="round"/>
<path d="M30.4531 37.9092V39.1822C30.4531 39.6836 30.5519 40.1801 30.7438 40.6434C30.9357 41.1066 31.2169 41.5275 31.5715 41.8821C31.926 42.2366 32.3469 42.5179 32.8102 42.7097C33.2734 42.9016 33.7699 43.0004 34.2713 43.0003L45.7258 43.0001C46.7384 43.0001 47.7095 42.5978 48.4255 41.8818C49.1416 41.1657 49.5438 40.1946 49.5438 39.182V37.9092" stroke="#567F88" stroke-width="2" stroke-linecap="round" stroke-linejoin="round"/>
<path d="M40.0004 43L40 48.0908" stroke="#567F88" stroke-width="2" stroke-linecap="round" stroke-linejoin="round"/>
</svg>
