<svg width="20" height="14" viewBox="0 0 20 14" fill="none" xmlns="http://www.w3.org/2000/svg">
<path d="M11.875 11.124L1.75 11.124" stroke="#567F88" stroke-width="2" stroke-linecap="round" stroke-linejoin="round"/>
<path d="M18.25 11.124L15.625 11.124" stroke="#567F88" stroke-width="2" stroke-linecap="round" stroke-linejoin="round"/>
<path d="M13.75 12.999C14.7855 12.999 15.625 12.1596 15.625 11.124C15.625 10.0885 14.7855 9.24902 13.75 9.24902C12.7145 9.24902 11.875 10.0885 11.875 11.124C11.875 12.1596 12.7145 12.999 13.75 12.999Z" stroke="#567F88" stroke-width="2" stroke-linecap="round" stroke-linejoin="round"/>
<path d="M5.875 2.87408L1.75 2.87402" stroke="#567F88" stroke-width="2" stroke-linecap="round" stroke-linejoin="round"/>
<path d="M18.25 2.87402L9.625 2.87408" stroke="#567F88" stroke-width="2" stroke-linecap="round" stroke-linejoin="round"/>
<path d="M7.75 4.74902C8.78553 4.74902 9.625 3.90956 9.625 2.87402C9.625 1.83849 8.78553 0.999023 7.75 0.999023C6.71447 0.999023 5.875 1.83849 5.875 2.87402C5.875 3.90956 6.71447 4.74902 7.75 4.74902Z" stroke="#567F88" stroke-width="2" stroke-linecap="round" stroke-linejoin="round"/>
</svg>
