<svg width="32" height="32" viewBox="0 0 32 32" fill="none" xmlns="http://www.w3.org/2000/svg">
<path d="M0 7.11111C0 3.18375 3.18375 0 7.11111 0H24.8889C28.8162 0 32 3.18375 32 7.11111V24.8889C32 28.8162 28.8162 32 24.8889 32H7.11111C3.18375 32 0 28.8162 0 24.8889V7.11111Z" fill="white"/>
<path d="M19.4086 15.6703H23.2081V22.044C22.3396 22.674 21.3409 23.1575 20.2119 23.4945C19.0829 23.8315 17.9539 24 16.8249 24C15.2328 24 13.7998 23.663 12.5261 22.989C11.2523 22.3004 10.2536 21.348 9.5299 20.1319C8.80619 18.9158 8.44434 17.5385 8.44434 16C8.44434 14.4615 8.80619 13.0842 9.5299 11.8681C10.2536 10.652 11.2596 9.70696 12.5478 9.03297C13.836 8.34432 15.2907 8 16.9118 8C18.3302 8 19.604 8.24176 20.733 8.72527C21.862 9.20879 22.8028 9.90476 23.5554 10.8132L20.8198 13.3187C19.7921 12.1758 18.5618 11.6044 17.1289 11.6044C15.8262 11.6044 14.7768 12.0073 13.9807 12.8132C13.1847 13.6044 12.7866 14.6667 12.7866 16C12.7866 16.8498 12.9675 17.6117 13.3294 18.2857C13.6912 18.9451 14.1978 19.4652 14.8492 19.8462C15.5005 20.2125 16.246 20.3956 17.0855 20.3956C17.9105 20.3956 18.6849 20.2271 19.4086 19.8901V15.6703Z" fill="#567F88"/>
<path d="M7.11111 0.888889H24.8889V-0.888889H7.11111V0.888889ZM31.1111 7.11111V24.8889H32.8889V7.11111H31.1111ZM24.8889 31.1111H7.11111V32.8889H24.8889V31.1111ZM0.888889 24.8889V7.11111H-0.888889V24.8889H0.888889ZM7.11111 31.1111C3.67467 31.1111 0.888889 28.3253 0.888889 24.8889H-0.888889C-0.888889 29.3072 2.69283 32.8889 7.11111 32.8889V31.1111ZM31.1111 24.8889C31.1111 28.3253 28.3253 31.1111 24.8889 31.1111V32.8889C29.3072 32.8889 32.8889 29.3072 32.8889 24.8889H31.1111ZM24.8889 0.888889C28.3253 0.888889 31.1111 3.67467 31.1111 7.11111H32.8889C32.8889 2.69283 29.3072 -0.888889 24.8889 -0.888889V0.888889ZM7.11111 -0.888889C2.69283 -0.888889 -0.888889 2.69283 -0.888889 7.11111H0.888889C0.888889 3.67467 3.67467 0.888889 7.11111 0.888889V-0.888889Z" fill="#E3EFF1"/>
</svg>
