<svg width="100" height="100" viewBox="0 0 100 100" fill="none" xmlns="http://www.w3.org/2000/svg">
<rect x="0.5" y="0.5" width="99" height="99" rx="49.5" fill="white" stroke="#567F88" stroke-dasharray="8 8"/>
<path d="M58.7346 38.3042H67.3434" stroke="#567F88" stroke-width="2" stroke-linecap="round" stroke-linejoin="round"/>
<path d="M63.0391 34V42.6088" stroke="#567F88" stroke-width="2" stroke-linecap="round" stroke-linejoin="round"/>
<path d="M32.7275 66.999C34.4916 63.9456 37.028 61.4103 40.0821 59.6476C43.1362 57.8849 46.6004 56.957 50.1267 56.957C53.6529 56.9571 57.1171 57.8851 60.1712 59.6478C63.2252 61.4105 65.7616 63.9459 67.5256 66.9993" stroke="#567F88" stroke-width="2" stroke-linecap="round" stroke-linejoin="round"/>
<path d="M60.8964 49.4569C60.1291 51.5285 58.7801 53.3346 57.0112 54.6581C55.2424 55.9815 53.1291 56.7662 50.9252 56.9177C48.7212 57.0693 46.5204 56.5813 44.5871 55.5124C42.6537 54.4434 41.0702 52.839 40.0266 50.8919C38.983 48.9448 38.5237 46.7378 38.7041 44.536C38.8844 42.3342 39.6965 40.2313 41.043 38.48C42.3895 36.7286 44.213 35.4032 46.2945 34.6631C48.3759 33.9229 50.6268 33.7995 52.7768 34.3076" stroke="#567F88" stroke-width="2" stroke-linecap="round" stroke-linejoin="round"/>
</svg>
