<svg width="16" height="12" viewBox="0 0 16 12" fill="none" xmlns="http://www.w3.org/2000/svg">
<path d="M8.38162 11.8386L13.9628 6.25742C15.3342 4.88607 15.5365 2.62998 14.2387 1.18879C13.9137 0.826757 13.5182 0.534747 13.0766 0.330581C12.6349 0.126415 12.1563 0.014374 11.6699 0.00129444C11.1835 -0.0117851 10.6996 0.0743712 10.2476 0.254506C9.79561 0.434641 9.38507 0.704977 9.04101 1.04902L7.99199 2.09803L7.08628 1.19232C5.71492 -0.179041 3.45884 -0.381363 2.01765 0.916404C1.65561 1.24147 1.3636 1.6369 1.15944 2.07855C0.955272 2.5202 0.843231 2.99882 0.830152 3.48521C0.817072 3.97159 0.903228 4.45554 1.08336 4.90753C1.2635 5.35951 1.53383 5.77006 1.87788 6.11412L7.60237 11.8386C7.7057 11.9419 7.84586 12 7.99199 12C8.13813 12 8.27828 11.9419 8.38162 11.8386Z" fill="#fff"/>
</svg>
