<svg width="122" height="16" viewBox="0 0 122 16" fill="none" xmlns="http://www.w3.org/2000/svg">
<path d="M11.0891 7.67033H14.9318V14.044C14.0535 14.674 13.0434 15.1575 11.9015 15.4945C10.7597 15.8315 9.61783 16 8.47599 16C6.8657 16 5.41644 15.663 4.1282 14.989C2.83997 14.3004 1.82988 13.348 1.09793 12.1319C0.365975 10.9158 0 9.53846 0 8C0 6.46154 0.365975 5.08425 1.09793 3.86813C1.82988 2.65201 2.84729 1.70696 4.15016 1.03297C5.45303 0.344322 6.92425 0 8.56382 0C9.99845 0 11.2867 0.241758 12.4285 0.725274C13.5704 1.20879 14.5219 1.90476 15.2831 2.81319L12.5164 5.31868C11.477 4.17582 10.2327 3.6044 8.78341 3.6044C7.4659 3.6044 6.40457 4.00733 5.59942 4.81319C4.79428 5.6044 4.3917 6.66667 4.3917 8C4.3917 8.84982 4.57469 9.61172 4.94067 10.2857C5.30664 10.9451 5.81901 11.4652 6.47776 11.8462C7.13652 12.2125 7.89043 12.3956 8.73949 12.3956C9.57392 12.3956 10.3571 12.2271 11.0891 11.8901V7.67033Z" fill="#054857"/>
<path d="M29.019 12.7033H22.5193L21.3116 15.6923H16.876L23.6612 0.307692H27.9431L34.7502 15.6923H30.2268L29.019 12.7033ZM27.7454 9.49451L25.7692 4.57143L23.7929 9.49451H27.7454Z" fill="#054857"/>
<path d="M43.7343 11.6044H41.3628V15.6923H37.015V0.307692H44.0417C45.4324 0.307692 46.6402 0.542124 47.6649 1.01099C48.6896 1.4652 49.4801 2.12454 50.0364 2.98901C50.5927 3.83883 50.8708 4.84249 50.8708 6C50.8708 7.11355 50.6073 8.08791 50.0803 8.92308C49.568 9.74359 48.8287 10.3883 47.8625 10.8571L51.1783 15.6923H46.5231L43.7343 11.6044ZM46.4791 6C46.4791 5.28205 46.2522 4.72528 45.7984 4.32967C45.3446 3.93407 44.6712 3.73626 43.7782 3.73626H41.3628V8.24176H43.7782C44.6712 8.24176 45.3446 8.05128 45.7984 7.67033C46.2522 7.27473 46.4791 6.71795 46.4791 6Z" fill="#054857"/>
<path d="M64.6002 7.67033H68.443V14.044C67.5646 14.674 66.5545 15.1575 65.4127 15.4945C64.2709 15.8315 63.129 16 61.9872 16C60.3769 16 58.9276 15.663 57.6394 14.989C56.3511 14.3004 55.3411 13.348 54.6091 12.1319C53.8772 10.9158 53.5112 9.53846 53.5112 8C53.5112 6.46154 53.8772 5.08425 54.6091 3.86813C55.3411 2.65201 56.3585 1.70696 57.6613 1.03297C58.9642 0.344322 60.4354 0 62.075 0C63.5096 0 64.7979 0.241758 65.9397 0.725274C67.0816 1.20879 68.0331 1.90476 68.7943 2.81319L66.0275 5.31868C64.9882 4.17582 63.7439 3.6044 62.2946 3.6044C60.9771 3.6044 59.9157 4.00733 59.1106 4.81319C58.3055 5.6044 57.9029 6.66667 57.9029 8C57.9029 8.84982 58.0859 9.61172 58.4518 10.2857C58.8178 10.9451 59.3302 11.4652 59.9889 11.8462C60.6477 12.2125 61.4016 12.3956 62.2507 12.3956C63.0851 12.3956 63.8683 12.2271 64.6002 11.8901V7.67033Z" fill="#054857"/>
<path d="M82.5302 12.7033H76.0305L74.8228 15.6923H70.3872L77.1723 0.307692H81.4542L88.2614 15.6923H83.7379L82.5302 12.7033ZM81.2566 9.49451L79.2803 4.57143L77.3041 9.49451H81.2566Z" fill="#054857"/>
<path d="M91.108 0.307692H95.4558V12.2418H102.79V15.6923H91.108V0.307692Z" fill="#054857"/>
<path d="M113.058 16C111.433 16 109.969 15.6557 108.666 14.967C107.378 14.2784 106.361 13.326 105.614 12.1099C104.882 10.8938 104.516 9.52381 104.516 8C104.516 6.47619 104.882 5.10623 105.614 3.89011C106.361 2.67399 107.378 1.72161 108.666 1.03297C109.969 0.344322 111.433 0 113.058 0C114.683 0 116.14 0.344322 117.428 1.03297C118.731 1.72161 119.748 2.67399 120.48 3.89011C121.227 5.10623 121.6 6.47619 121.6 8C121.6 9.52381 121.227 10.8938 120.48 12.1099C119.748 13.326 118.731 14.2784 117.428 14.967C116.14 15.6557 114.683 16 113.058 16ZM113.058 12.3956C113.834 12.3956 114.537 12.2125 115.166 11.8462C115.796 11.4799 116.293 10.967 116.659 10.3077C117.025 9.6337 117.208 8.86447 117.208 8C117.208 7.13553 117.025 6.37363 116.659 5.71429C116.293 5.04029 115.796 4.52015 115.166 4.15385C114.537 3.78755 113.834 3.6044 113.058 3.6044C112.282 3.6044 111.58 3.78755 110.95 4.15385C110.321 4.52015 109.823 5.04029 109.457 5.71429C109.091 6.37363 108.908 7.13553 108.908 8C108.908 8.86447 109.091 9.6337 109.457 10.3077C109.823 10.967 110.321 11.4799 110.95 11.8462C111.58 12.2125 112.282 12.3956 113.058 12.3956Z" fill="#054857"/>
</svg>
