<svg width="20" height="20" viewBox="0 0 20 20" fill="none" xmlns="http://www.w3.org/2000/svg">
<path d="M12.5455 18.6362V13.5454C12.5455 13.3204 12.4562 13.1046 12.297 12.9455C12.1379 12.7863 11.9221 12.6969 11.6971 12.6969H8.30333C8.07831 12.6969 7.8625 12.7863 7.70339 12.9455C7.54428 13.1046 7.45489 13.3204 7.45489 13.5454V18.6362C7.45489 18.8612 7.36551 19.0769 7.20642 19.2361C7.04733 19.3952 6.83155 19.4846 6.60655 19.4846L1.51652 19.4853C1.40509 19.4853 1.29475 19.4633 1.1918 19.4207C1.08885 19.3781 0.995306 19.3156 0.916509 19.2368C0.837713 19.158 0.775207 19.0645 0.732563 18.9615C0.689918 18.8586 0.667969 18.7482 0.667969 18.6368V8.83091C0.667969 8.7127 0.692668 8.5958 0.740484 8.4877C0.788299 8.3796 0.858176 8.28268 0.945633 8.20316L9.42947 0.48925C9.58565 0.347249 9.78914 0.268562 10.0002 0.268555C10.2113 0.268548 10.4148 0.347222 10.571 0.489212L19.056 8.20315C19.1435 8.28267 19.2134 8.3796 19.2612 8.48771C19.309 8.59582 19.3337 8.71273 19.3337 8.83094V18.6368C19.3337 18.7483 19.3118 18.8586 19.2691 18.9615C19.2265 19.0645 19.164 19.158 19.0852 19.2368C19.0064 19.3156 18.9128 19.3781 18.8099 19.4207C18.7069 19.4633 18.5966 19.4853 18.4852 19.4853L13.3939 19.4846C13.1689 19.4846 12.9531 19.3952 12.794 19.2361C12.6349 19.0769 12.5455 18.8612 12.5455 18.6362Z" fill="#054857"/>
</svg>
