<svg width="18" height="14" viewBox="0 0 18 14" fill="none" xmlns="http://www.w3.org/2000/svg">
<path d="M9.38162 12.8386L14.9628 7.25742C16.3342 5.88607 16.5365 3.62998 15.2387 2.18879C14.9137 1.82676 14.5182 1.53475 14.0766 1.33058C13.6349 1.12641 13.1563 1.01437 12.6699 1.00129C12.1835 0.988215 11.6996 1.07437 11.2476 1.25451C10.7956 1.43464 10.3851 1.70498 10.041 2.04902L8.99199 3.09803L8.08628 2.19232C6.71492 0.820959 4.45884 0.618637 3.01765 1.9164C2.65561 2.24147 2.3636 2.6369 2.15944 3.07855C1.95527 3.5202 1.84323 3.99882 1.83015 4.48521C1.81707 4.97159 1.90323 5.45554 2.08336 5.90753C2.2635 6.35951 2.53383 6.77006 2.87788 7.11412L8.60237 12.8386C8.7057 12.9419 8.84586 13 8.99199 13C9.13813 13 9.27828 12.9419 9.38162 12.8386V12.8386Z" stroke="#567F88" stroke-width="2" stroke-linecap="round" stroke-linejoin="round"/>
</svg>
