<svg width="22" height="23" viewBox="0 0 22 23" fill="none" xmlns="http://www.w3.org/2000/svg">
<path d="M2.50234 16.2964C1.27422 14.2262 0.844129 11.7788 1.29281 9.41382C1.7415 7.04887 3.03809 4.92906 4.93913 3.45244C6.84017 1.97582 9.21488 1.24396 11.6173 1.3943C14.0198 1.54464 16.2847 2.56683 17.9869 4.26892C19.689 5.97102 20.7112 8.23593 20.8615 10.6384C21.0119 13.0408 20.28 15.4155 18.8034 17.3165C17.3268 19.2175 15.207 20.5141 12.842 20.9628C10.477 21.4115 8.0296 20.9814 5.95929 19.7533L5.95931 19.7532L2.54531 20.7287C2.40407 20.769 2.2546 20.7709 2.11239 20.734C1.97019 20.6972 1.84042 20.623 1.73655 20.5191C1.63268 20.4152 1.55847 20.2855 1.52162 20.1433C1.48477 20.001 1.48662 19.8516 1.52698 19.7103L2.50241 16.2964L2.50234 16.2964Z" stroke="#567F88" stroke-width="2" stroke-linecap="round" stroke-linejoin="round"/>
<path d="M6.06127 12.4912C6.74367 12.4912 7.29687 11.938 7.29687 11.2556C7.29687 10.5732 6.74367 10.02 6.06127 10.02C5.37888 10.02 4.82568 10.5732 4.82568 11.2556C4.82568 11.938 5.37888 12.4912 6.06127 12.4912Z" fill="#567F88"/>
<path d="M11.0046 12.4912C11.687 12.4912 12.2402 11.938 12.2402 11.2556C12.2402 10.5732 11.687 10.02 11.0046 10.02C10.3222 10.02 9.76904 10.5732 9.76904 11.2556C9.76904 11.938 10.3222 12.4912 11.0046 12.4912Z" fill="#567F88"/>
<path d="M15.946 12.4912C16.6284 12.4912 17.1816 11.938 17.1816 11.2556C17.1816 10.5732 16.6284 10.02 15.946 10.02C15.2636 10.02 14.7104 10.5732 14.7104 11.2556C14.7104 11.938 15.2636 12.4912 15.946 12.4912Z" fill="#567F88"/>
</svg>
