<svg width="24" height="21" viewBox="0 0 24 21" fill="none" xmlns="http://www.w3.org/2000/svg">
<path d="M20.75 19.75H3.25C2.78587 19.75 2.34075 19.5656 2.01256 19.2374C1.68437 18.9092 1.5 18.4641 1.5 18V5.75C1.5 5.28587 1.68437 4.84075 2.01256 4.51256C2.34075 4.18437 2.78587 4 3.25 4H5.17193C6.15742 4 7.07771 3.50748 7.62436 2.6875V2.6875C8.17101 1.86752 9.0913 1.375 10.0768 1.375H13.9219C14.9074 1.375 15.8277 1.86752 16.3744 2.6875V2.6875C16.921 3.50748 17.8413 4 18.8268 4H20.75C21.2141 4 21.6592 4.18437 21.9874 4.51256C22.3156 4.84075 22.5 5.28587 22.5 5.75V18C22.5 18.4641 22.3156 18.9092 21.9874 19.2374C21.6592 19.5656 21.2141 19.75 20.75 19.75Z" stroke="#567F88" stroke-width="1.5" stroke-linecap="round" stroke-linejoin="round"/>
</svg>
