<svg width="18" height="20" viewBox="0 0 18 20" fill="none" xmlns="http://www.w3.org/2000/svg">
<path d="M16.6636 9.4258L2.77176 1.64638C2.65489 1.58094 2.52083 1.55272 2.38749 1.5655C2.25416 1.57829 2.1279 1.63146 2.0256 1.71793C1.9233 1.80439 1.84982 1.92001 1.81499 2.04935C1.78016 2.17869 1.78564 2.31558 1.83069 2.44172L4.45099 9.77856C4.5021 9.92166 4.5021 10.078 4.45099 10.2211L1.83069 17.558C1.78564 17.6841 1.78016 17.821 1.81499 17.9503C1.84982 18.0797 1.9233 18.1953 2.0256 18.2818C2.1279 18.3682 2.25416 18.4214 2.3875 18.4342C2.52083 18.447 2.65489 18.4187 2.77176 18.3533L16.6636 10.5739C16.7656 10.5167 16.8506 10.4334 16.9097 10.3325C16.9689 10.2316 17 10.1168 17 9.99984C17 9.88289 16.9688 9.76805 16.9097 9.66715C16.8506 9.56625 16.7656 9.48294 16.6636 9.4258V9.4258Z" stroke="#054857" stroke-width="2" stroke-linecap="round" stroke-linejoin="round"/>
<path d="M4.53003 10H9.79348" stroke="#054857" stroke-width="2" stroke-linecap="round" stroke-linejoin="round"/>
</svg>
