<svg width="18" height="18" viewBox="0 0 18 18" fill="none" xmlns="http://www.w3.org/2000/svg">
<path d="M2.22704 13.0176C1.24821 11.3676 0.905422 9.41697 1.26303 7.53207C1.62064 5.64717 2.65405 3.95765 4.16921 2.78075C5.68437 1.60386 7.57705 1.02056 9.49185 1.14038C11.4066 1.2602 13.2118 2.07491 14.5685 3.43151C15.9251 4.7881 16.7398 6.59328 16.8596 8.50806C16.9795 10.4228 16.3962 12.3155 15.2193 13.8307C14.0424 15.3458 12.3528 16.3792 10.4679 16.7368C8.583 17.0944 6.63236 16.7517 4.98229 15.7728L4.98231 15.7728L2.2613 16.5502C2.14872 16.5824 2.02959 16.5838 1.91625 16.5545C1.80291 16.5251 1.69949 16.466 1.6167 16.3832C1.53391 16.3004 1.47476 16.1969 1.44539 16.0836C1.41603 15.9703 1.4175 15.8511 1.44967 15.7386L2.2271 13.0176L2.22704 13.0176Z" stroke="#567F88" stroke-width="2" stroke-linecap="round" stroke-linejoin="round"/>
</svg>
