<svg width="18" height="17" viewBox="0 0 18 17" fill="none" xmlns="http://www.w3.org/2000/svg">
<path d="M12.8804 3.06543H16.7607" stroke="#567F88" stroke-width="2" stroke-linecap="round" stroke-linejoin="round"/>
<path d="M14.8206 1.125V5.00538" stroke="#567F88" stroke-width="2" stroke-linecap="round" stroke-linejoin="round"/>
<path d="M1.15747 15.999C1.95259 14.6227 3.09589 13.4799 4.47252 12.6854C5.84914 11.8909 7.4106 11.4726 9.00005 11.4727C10.5895 11.4727 12.151 11.891 13.5276 12.6855C14.9042 13.4801 16.0475 14.6229 16.8425 15.9992" stroke="#567F88" stroke-width="2" stroke-linecap="round" stroke-linejoin="round"/>
<path d="M13.8546 8.09212C13.5087 9.0259 12.9007 9.83997 12.1034 10.4365C11.3061 11.0331 10.3535 11.3868 9.3601 11.4551C8.36668 11.5234 7.37466 11.3034 6.50323 10.8216C5.63179 10.3398 4.918 9.61661 4.4476 8.73896C3.97721 7.86131 3.77021 6.86651 3.85148 5.87407C3.93276 4.88162 4.29884 3.93375 4.90576 3.14433C5.51268 2.3549 6.33462 1.75749 7.27283 1.42387C8.21105 1.09025 9.22563 1.03461 10.1947 1.26363" stroke="#567F88" stroke-width="2" stroke-linecap="round" stroke-linejoin="round"/>
</svg>
