<svg width="47" height="41" viewBox="0 0 47 41" fill="none" xmlns="http://www.w3.org/2000/svg">
<path d="M41.99 40.0472H5.01001C4.02924 40.0472 3.08864 39.6576 2.39513 38.9641C1.70162 38.2706 1.31201 37.33 1.31201 36.3492V10.4632C1.31201 9.48248 1.70162 8.54188 2.39513 7.84837C3.08864 7.15486 4.02924 6.76525 5.01001 6.76525H9.19354C11.1997 6.76525 13.073 5.76265 14.1858 4.09346L14.3214 3.89006C15.4342 2.22087 17.3076 1.21826 19.3137 1.21826H27.6835C29.6896 1.21826 31.563 2.22087 32.6758 3.89006L32.8114 4.09346C33.9242 5.76265 35.7976 6.76525 37.8037 6.76525H41.99C42.9707 6.76525 43.9113 7.15486 44.6048 7.84837C45.2983 8.54188 45.688 9.48248 45.688 10.4632V36.3492C45.688 37.33 45.2983 38.2706 44.6048 38.9641C43.9113 39.6576 42.9707 40.0472 41.99 40.0472Z" stroke="#AAC0C5" stroke-width="1.5" stroke-linecap="round" stroke-linejoin="round"/>
<path d="M23.5002 30.8021C28.0955 30.8021 31.8207 27.0769 31.8207 22.4816C31.8207 17.8863 28.0955 14.1611 23.5002 14.1611C18.9049 14.1611 15.1797 17.8863 15.1797 22.4816C15.1797 27.0769 18.9049 30.8021 23.5002 30.8021Z" stroke="#AAC0C5" stroke-width="1.5" stroke-linecap="round" stroke-linejoin="round"/>
</svg>
