<svg width="18" height="18" viewBox="0 0 18 18" fill="none" xmlns="http://www.w3.org/2000/svg">
<path d="M8.875 11.6245C10.3247 11.6245 11.5 10.4493 11.5 8.99951C11.5 7.54976 10.3247 6.37451 8.875 6.37451C7.42525 6.37451 6.25 7.54976 6.25 8.99951C6.25 10.4493 7.42525 11.6245 8.875 11.6245Z" stroke="#567F88" stroke-width="2" stroke-linecap="round" stroke-linejoin="round"/>
<path d="M15.826 8.36791L16.6401 7.14677C16.6932 7.0681 16.7282 6.97872 16.7429 6.88496C16.7575 6.79121 16.7513 6.69538 16.7247 6.6043C16.5711 6.09856 16.3687 5.60896 16.1203 5.14242C16.0748 5.05937 16.0115 4.98739 15.935 4.93161C15.8585 4.87584 15.7706 4.83765 15.6776 4.81978L14.237 4.53165L13.3434 3.63805L13.0553 2.19746C13.0374 2.10446 12.9992 2.01655 12.9435 1.94002C12.8877 1.86348 12.8157 1.8002 12.7326 1.7547C12.2661 1.50635 11.7764 1.30396 11.2707 1.1504C11.1796 1.12381 11.0838 1.11761 10.99 1.13223C10.8963 1.14684 10.8069 1.18192 10.7282 1.23497L9.50717 2.04901H8.24341L7.02234 1.23497C6.94367 1.18192 6.85429 1.14684 6.76053 1.13223C6.66678 1.11761 6.57096 1.12381 6.47987 1.1504C5.97413 1.30396 5.48452 1.50635 5.01795 1.7547C4.93489 1.8002 4.8629 1.86348 4.80712 1.94002C4.75134 2.01656 4.71315 2.10447 4.69528 2.19748L4.40722 3.63797L3.51354 4.53164L2.07304 4.8197C1.98004 4.83758 1.89213 4.87576 1.81559 4.93154C1.73906 4.98731 1.67578 5.0593 1.63027 5.14235C1.38189 5.60892 1.17947 6.09854 1.02588 6.6043C0.9993 6.69539 0.993099 6.79121 1.00772 6.88496C1.02234 6.97871 1.05742 7.06809 1.11047 7.14676L1.92451 8.36783V9.63159L1.11046 10.8527C1.05742 10.9313 1.02234 11.0207 1.00772 11.1145C0.993106 11.2082 0.999309 11.304 1.02589 11.3951C1.17943 11.9009 1.38182 12.3905 1.63019 12.8571C1.67569 12.9401 1.73897 13.0121 1.81551 13.0679C1.89204 13.1237 1.97995 13.1618 2.07295 13.1797L3.51354 13.4679L4.40714 14.3615L4.69521 15.802C4.71308 15.895 4.75127 15.983 4.80704 16.0595C4.86281 16.136 4.93479 16.1993 5.01785 16.2448C5.48439 16.4932 5.974 16.6956 6.47974 16.8491C6.57082 16.8757 6.66664 16.8819 6.76038 16.8673C6.85413 16.8527 6.94351 16.8176 7.02217 16.7646L8.24333 15.9505H9.50709L10.7282 16.7646C10.8069 16.8177 10.8963 16.8527 10.99 16.8673C11.0838 16.882 11.1796 16.8758 11.2707 16.8492C11.7764 16.6956 12.266 16.4932 12.7326 16.2449C12.8156 16.1994 12.8876 16.1361 12.9434 16.0596C12.9992 15.983 13.0373 15.8951 13.0552 15.8021L13.3433 14.3615L14.2369 13.4679L15.6775 13.1798C15.7705 13.1619 15.8584 13.1237 15.935 13.068C16.0115 13.0122 16.0748 12.9402 16.1203 12.8571C16.3687 12.3906 16.5711 11.901 16.7247 11.3953C16.7513 11.3042 16.7575 11.2084 16.7428 11.1146C16.7282 11.0209 16.6931 10.9315 16.6401 10.8528L15.826 9.63167V8.36791Z" stroke="#567F88" stroke-width="2" stroke-linecap="round" stroke-linejoin="round"/>
</svg>
